<svg id="visual" viewBox="0 0 450 900" width="450" height="900" xmlns="http://www.w3.org/2000/svg" xmlns:xlink="http://www.w3.org/1999/xlink" version="1.1"><rect x="0" y="0" width="450" height="900" fill="#001122"></rect><path d="M0 513L64 513L64 525L129 525L129 378L193 378L193 457L257 457L257 467L321 467L321 442L386 442L386 519L450 519L450 404L450 901L450 901L386 901L386 901L321 901L321 901L257 901L257 901L193 901L193 901L129 901L129 901L64 901L64 901L0 901Z" fill="#5379b3"></path><path d="M0 484L64 484L64 512L129 512L129 581L193 581L193 607L257 607L257 522L321 522L321 545L386 545L386 629L450 629L450 638L450 901L450 901L386 901L386 901L321 901L321 901L257 901L257 901L193 901L193 901L129 901L129 901L64 901L64 901L0 901Z" fill="#445494"></path><path d="M0 606L64 606L64 595L129 595L129 723L193 723L193 622L257 622L257 637L321 637L321 614L386 614L386 616L450 616L450 633L450 901L450 901L386 901L386 901L321 901L321 901L257 901L257 901L193 901L193 901L129 901L129 901L64 901L64 901L0 901Z" fill="#3a3073"></path><path d="M0 788L64 788L64 783L129 783L129 721L193 721L193 836L257 836L257 802L321 802L321 746L386 746L386 728L450 728L450 782L450 901L450 901L386 901L386 901L321 901L321 901L257 901L257 901L193 901L193 901L129 901L129 901L64 901L64 901L0 901Z" fill="#31064e"></path></svg>