<svg id="visual" viewBox="0 0 900 600" width="900" height="600" xmlns="http://www.w3.org/2000/svg" xmlns:xlink="http://www.w3.org/1999/xlink" version="1.1"><rect x="0" y="0" width="900" height="600" fill="#001220"></rect><defs><linearGradient id="grad1_0" x1="33.3%" y1="0%" x2="100%" y2="100%"><stop offset="20%" stop-color="#9908cd" stop-opacity="1"></stop><stop offset="80%" stop-color="#9908cd" stop-opacity="1"></stop></linearGradient></defs><defs><linearGradient id="grad1_1" x1="33.3%" y1="0%" x2="100%" y2="100%"><stop offset="20%" stop-color="#9908cd" stop-opacity="1"></stop><stop offset="80%" stop-color="#5830b7" stop-opacity="1"></stop></linearGradient></defs><defs><linearGradient id="grad1_2" x1="33.3%" y1="0%" x2="100%" y2="100%"><stop offset="20%" stop-color="#103398" stop-opacity="1"></stop><stop offset="80%" stop-color="#5830b7" stop-opacity="1"></stop></linearGradient></defs><defs><linearGradient id="grad1_3" x1="33.3%" y1="0%" x2="100%" y2="100%"><stop offset="20%" stop-color="#103398" stop-opacity="1"></stop><stop offset="80%" stop-color="#002d71" stop-opacity="1"></stop></linearGradient></defs><defs><linearGradient id="grad1_4" x1="33.3%" y1="0%" x2="100%" y2="100%"><stop offset="20%" stop-color="#002148" stop-opacity="1"></stop><stop offset="80%" stop-color="#002d71" stop-opacity="1"></stop></linearGradient></defs><defs><linearGradient id="grad1_5" x1="33.3%" y1="0%" x2="100%" y2="100%"><stop offset="20%" stop-color="#002148" stop-opacity="1"></stop><stop offset="80%" stop-color="#001220" stop-opacity="1"></stop></linearGradient></defs><defs><linearGradient id="grad2_0" x1="0%" y1="0%" x2="66.7%" y2="100%"><stop offset="20%" stop-color="#9908cd" stop-opacity="1"></stop><stop offset="80%" stop-color="#9908cd" stop-opacity="1"></stop></linearGradient></defs><defs><linearGradient id="grad2_1" x1="0%" y1="0%" x2="66.7%" y2="100%"><stop offset="20%" stop-color="#5830b7" stop-opacity="1"></stop><stop offset="80%" stop-color="#9908cd" stop-opacity="1"></stop></linearGradient></defs><defs><linearGradient id="grad2_2" x1="0%" y1="0%" x2="66.7%" y2="100%"><stop offset="20%" stop-color="#5830b7" stop-opacity="1"></stop><stop offset="80%" stop-color="#103398" stop-opacity="1"></stop></linearGradient></defs><defs><linearGradient id="grad2_3" x1="0%" y1="0%" x2="66.7%" y2="100%"><stop offset="20%" stop-color="#002d71" stop-opacity="1"></stop><stop offset="80%" stop-color="#103398" stop-opacity="1"></stop></linearGradient></defs><defs><linearGradient id="grad2_4" x1="0%" y1="0%" x2="66.7%" y2="100%"><stop offset="20%" stop-color="#002d71" stop-opacity="1"></stop><stop offset="80%" stop-color="#002148" stop-opacity="1"></stop></linearGradient></defs><defs><linearGradient id="grad2_5" x1="0%" y1="0%" x2="66.7%" y2="100%"><stop offset="20%" stop-color="#001220" stop-opacity="1"></stop><stop offset="80%" stop-color="#002148" stop-opacity="1"></stop></linearGradient></defs><g transform="translate(900, 0)"><path d="M0 378.6C-53.5 347.3 -107 316 -166.5 288.4C-226 260.7 -291.5 236.7 -327.9 189.3C-364.2 141.8 -371.4 70.9 -378.6 0L0 0Z" fill="#001a33"></path><path d="M0 315.5C-44.6 289.4 -89.2 263.4 -138.7 240.3C-188.3 217.3 -242.9 197.3 -273.2 157.7C-303.5 118.2 -309.5 59.1 -315.5 0L0 0Z" fill="#00275c"></path><path d="M0 252.4C-35.7 231.5 -71.3 210.7 -111 192.3C-150.7 173.8 -194.3 157.8 -218.6 126.2C-242.8 94.6 -247.6 47.3 -252.4 0L0 0Z" fill="#003185"></path><path d="M0 189.3C-26.7 173.7 -53.5 158 -83.2 144.2C-113 130.4 -145.8 118.4 -163.9 94.6C-182.1 70.9 -185.7 35.5 -189.3 0L0 0Z" fill="#3733a9"></path><path d="M0 126.2C-17.8 115.8 -35.7 105.3 -55.5 96.1C-75.3 86.9 -97.2 78.9 -109.3 63.1C-121.4 47.3 -123.8 23.6 -126.2 0L0 0Z" fill="#7826c4"></path><path d="M0 63.1C-8.9 57.9 -17.8 52.7 -27.7 48.1C-37.7 43.5 -48.6 39.5 -54.6 31.5C-60.7 23.6 -61.9 11.8 -63.1 0L0 0Z" fill="#9908cd"></path></g><g transform="translate(0, 600)"><path d="M0 -378.6C68.5 -370 137 -361.4 189.3 -327.9C241.6 -294.3 277.7 -235.8 306.6 -177C335.4 -118.2 357 -59.1 378.6 0L0 0Z" fill="#001a33"></path><path d="M0 -315.5C57.1 -308.3 114.2 -301.2 157.7 -273.2C201.3 -245.3 231.4 -196.5 255.5 -147.5C279.5 -98.5 297.5 -49.2 315.5 0L0 0Z" fill="#00275c"></path><path d="M0 -252.4C45.7 -246.7 91.3 -240.9 126.2 -218.6C161.1 -196.2 185.1 -157.2 204.4 -118C223.6 -78.8 238 -39.4 252.4 0L0 0Z" fill="#003185"></path><path d="M0 -189.3C34.2 -185 68.5 -180.7 94.6 -163.9C120.8 -147.2 138.9 -117.9 153.3 -88.5C167.7 -59.1 178.5 -29.5 189.3 0L0 0Z" fill="#3733a9"></path><path d="M0 -126.2C22.8 -123.3 45.7 -120.5 63.1 -109.3C80.5 -98.1 92.6 -78.6 102.2 -59C111.8 -39.4 119 -19.7 126.2 0L0 0Z" fill="#7826c4"></path><path d="M0 -63.1C11.4 -61.7 22.8 -60.2 31.5 -54.6C40.3 -49.1 46.3 -39.3 51.1 -29.5C55.9 -19.7 59.5 -9.8 63.1 0L0 0Z" fill="#9908cd"></path></g></svg>